<svg xmlns="http://www.w3.org/2000/svg" xmlns:xlink="http://www.w3.org/1999/xlink" xmlns:lucid="lucid" width="1052.5" height="481.67"><g transform="translate(-80 1.6666666666666643)" lucid:page-tab-id="0_0"><path d="M0 0h1870.87v1322.83H0z" fill="#fff"/><path d="M520 226c0-3.3 2.7-6 6-6h148c3.3 0 6 2.7 6 6v108c0 3.3-2.7 6-6 6H526c-3.3 0-6-2.7-6-6z" stroke="#5e5e5e" stroke-width="3" fill="#fff"/><use xlink:href="#a" transform="matrix(1,0,0,1,532,232) translate(50.098765432098766 53.77777777777778)"/><path d="M228 240c17.67 0 32 17.9 32 40s-14.33 40-32 40h-96c-17.67 0-32-17.9-32-40s14.33-40 32-40z" stroke="#5e5e5e" stroke-width="3" fill="#fff"/><use xlink:href="#b" transform="matrix(1,0,0,1,105,245) translate(19.537037037037038 39.65277777777778)"/><use xlink:href="#c" transform="matrix(1,0,0,1,105,245) translate(90.95679012345678 39.65277777777778)"/><path d="M262.5 280H500" stroke="#5e5e5e" stroke-width="2" fill="none"/><path d="M262.53 281h-1.1l.07-.98-.03-1.02h1.06z" fill="#5e5e5e"/><path d="M515.26 280L501 284.64v-9.28z" stroke="#5e5e5e" stroke-width="2" fill="#5e5e5e"/><path d="M270 224.33c0-3.3 2.7-6 6-6h228c3.3 0 6 2.7 6 6v51.34c0 3.3-2.7 6-6 6H276c-3.3 0-6-2.7-6-6z" stroke="#000" stroke-opacity="0" stroke-width="3" fill="#fff" fill-opacity="0"/><use xlink:href="#d" transform="matrix(1,0,0,1,275,223.33333333333334) translate(47.74691358024691 17.77777777777778)"/><use xlink:href="#e" transform="matrix(1,0,0,1,275,223.33333333333334) translate(97.0679012345679 17.77777777777778)"/><use xlink:href="#f" transform="matrix(1,0,0,1,275,223.33333333333334) translate(20.709876543209887 44.44444444444444)"/><path d="M270 406c0-3.3 2.7-6 6-6h228c3.3 0 6 2.7 6 6v48c0 3.3-2.7 6-6 6H276c-3.3 0-6-2.7-6-6z" stroke="#000" stroke-opacity="0" stroke-width="3" fill="#fff" fill-opacity="0"/><use xlink:href="#g" transform="matrix(1,0,0,1,275,405) translate(13.179012345679013 30.27777777777778)"/><use xlink:href="#h" transform="matrix(1,0,0,1,275,405) translate(93.30246913580245 30.27777777777778)"/><use xlink:href="#i" transform="matrix(1,0,0,1,275,405) translate(156.2037037037037 30.27777777777778)"/><use xlink:href="#j" transform="matrix(1,0,0,1,275,405) translate(175.3395061728395 30.27777777777778)"/><path d="M340 128c0 6.63-26.86 12-60 12s-60-5.37-60-12V32c0-6.63 26.86-12 60-12s60 5.37 60 12z" stroke="#5e5e5e" stroke-width="3" fill="#fff"/><path d="M340 32c0 6.63-26.86 12-60 12s-60-5.37-60-12" stroke="#5e5e5e" stroke-width="3" fill="none"/><use xlink:href="#k" transform="matrix(1,0,0,1,225,49) translate(20.524691358024697 47.34027777777778)"/><path d="M342.5 80H594c3.3 0 6 2.7 6 6v114" stroke="#5e5e5e" stroke-width="2" fill="none"/><path d="M342.53 81h-1.03v-2h1.03z" fill="#5e5e5e"/><path d="M600 215.26L595.36 201h9.28z" stroke="#5e5e5e" stroke-width="2" fill="#5e5e5e"/><path d="M360 24.33c0-3.3 2.7-6 6-6h228c3.3 0 6 2.7 6 6v51.34c0 3.3-2.7 6-6 6H366c-3.3 0-6-2.7-6-6z" stroke="#000" stroke-opacity="0" stroke-width="3" fill="#fff" fill-opacity="0"/><use xlink:href="#g" transform="matrix(1,0,0,1,365,23.333333333333336) translate(26.265432098765444 17.77777777777778)"/><use xlink:href="#l" transform="matrix(1,0,0,1,365,23.333333333333336) translate(106.38888888888889 17.77777777777778)"/><use xlink:href="#m" transform="matrix(1,0,0,1,365,23.333333333333336) translate(20.06172839506175 44.44444444444444)"/><path d="M920 66c0-3.3 2.7-6 6-6h148c3.3 0 6 2.7 6 6v108c0 3.3-2.7 6-6 6H926c-3.3 0-6-2.7-6-6z" stroke="#5e5e5e" stroke-width="3" fill="#fff"/><use xlink:href="#n" transform="matrix(1,0,0,1,932,72) translate(11.240740740740748 53.77777777777778)"/><use xlink:href="#o" transform="matrix(1,0,0,1,932,72) translate(88.95679012345678 53.77777777777778)"/><path d="M860 262.67c0-3.32 2.7-6 6-6h228c3.3 0 6 2.68 6 6V314c0 3.3-2.7 6-6 6H866c-3.3 0-6-2.7-6-6z" stroke="#000" stroke-opacity="0" stroke-width="3" fill="#fff" fill-opacity="0"/><use xlink:href="#p" transform="matrix(1,0,0,1,865,261.6666666666667) translate(63.76543209876543 17.77777777777778)"/><use xlink:href="#q" transform="matrix(1,0,0,1,865,261.6666666666667) translate(106.97530864197532 17.77777777777778)"/><use xlink:href="#r" transform="matrix(1,0,0,1,865,261.6666666666667) translate(23.827160493827165 44.44444444444444)"/><path d="M600 217.5V86c0-3.3-2.7-6-6-6H360" stroke="#5e5e5e" stroke-width="2" fill="none"/><path d="M601 218.5h-2v-1.03h2z" fill="#5e5e5e"/><path d="M344.74 80L359 75.36v9.28z" stroke="#5e5e5e" stroke-width="2" fill="#5e5e5e"/><path d="M262.5 280H500" stroke="#5e5e5e" stroke-width="2" fill="none"/><path d="M262.53 281h-1.1l.07-.98-.03-1.02h1.06z" fill="#5e5e5e"/><path d="M515.26 280L501 284.64v-9.28z" stroke="#5e5e5e" stroke-width="2" fill="#5e5e5e"/><path d="M1082.5 120h33c3.3 0 6 2.7 6 6v198.22c0 3.32-2.7 6-6 6H700" stroke="#5e5e5e" stroke-width="2" fill="none"/><path d="M1082.53 121h-1.03v-2h1.03z" fill="#5e5e5e"/><path d="M684.74 330.22L699 325.6v9.26z" stroke="#5e5e5e" stroke-width="2" fill="#5e5e5e"/><path d="M682.5 280H794c3.3 0 6-2.7 6-6V126c0-3.3 2.7-6 6-6h94" stroke="#5e5e5e" stroke-width="2" fill="none"/><path d="M682.53 281h-1.03v-2h1.03z" fill="#5e5e5e"/><path d="M915.26 120L901 124.64v-9.28z" stroke="#5e5e5e" stroke-width="2" fill="#5e5e5e"/><path d="M600 342.5v33c0 3.3-2.7 6-6 6H186c-3.3 0-6-2.7-6-6V340" stroke="#5e5e5e" stroke-width="2" fill="none"/><path d="M601 342.53h-2v-1.03h2z" fill="#5e5e5e"/><path d="M180 324.74l4.64 14.26h-9.28z" stroke="#5e5e5e" stroke-width="2" fill="#5e5e5e"/><defs><path fill="#333" d="M205 0l-28-72H64L36 0H1l101-248h38L239 0h-34zm-38-99l-47-123c-12 45-31 82-46 123h93" id="s"/><path fill="#333" d="M30-248c87 1 191-15 191 75 0 78-77 80-158 76V0H30v-248zm33 125c57 0 124 11 124-50 0-59-68-47-124-48v98" id="t"/><path fill="#333" d="M33 0v-248h34V0H33" id="u"/><g id="a"><use transform="matrix(0.06172839506172839,0,0,0.06172839506172839,0,0)" xlink:href="#s"/><use transform="matrix(0.06172839506172839,0,0,0.06172839506172839,14.814814814814813,0)" xlink:href="#t"/><use transform="matrix(0.06172839506172839,0,0,0.06172839506172839,29.629629629629626,0)" xlink:href="#u"/></g><path fill="#333" d="M240 0l2-218c-23 76-54 145-80 218h-23L58-218 59 0H30v-248h44l77 211c21-75 51-140 76-211h43V0h-30" id="v"/><path fill="#333" d="M100-194c62-1 85 37 85 99 1 63-27 99-86 99S16-35 15-95c0-66 28-99 85-99zM99-20c44 1 53-31 53-75 0-43-8-75-51-75s-53 32-53 75 10 74 51 75" id="w"/><path fill="#333" d="M115-194c53 0 69 39 70 98 0 66-23 100-70 100C84 3 66-7 56-30L54 0H23l1-261h32v101c10-23 28-34 59-34zm-8 174c40 0 45-34 45-75 0-40-5-75-45-74-42 0-51 32-51 76 0 43 10 73 51 73" id="x"/><path fill="#333" d="M24-231v-30h32v30H24zM24 0v-190h32V0H24" id="y"/><path fill="#333" d="M24 0v-261h32V0H24" id="z"/><path fill="#333" d="M100-194c63 0 86 42 84 106H49c0 40 14 67 53 68 26 1 43-12 49-29l28 8c-11 28-37 45-77 45C44 4 14-33 15-96c1-61 26-98 85-98zm52 81c6-60-76-77-97-28-3 7-6 17-6 28h103" id="A"/><g id="b"><use transform="matrix(0.06172839506172839,0,0,0.06172839506172839,0,0)" xlink:href="#v"/><use transform="matrix(0.06172839506172839,0,0,0.06172839506172839,18.456790123456788,0)" xlink:href="#w"/><use transform="matrix(0.06172839506172839,0,0,0.06172839506172839,30.80246913580247,0)" xlink:href="#x"/><use transform="matrix(0.06172839506172839,0,0,0.06172839506172839,43.148148148148145,0)" xlink:href="#y"/><use transform="matrix(0.06172839506172839,0,0,0.06172839506172839,48.02469135802469,0)" xlink:href="#z"/><use transform="matrix(0.06172839506172839,0,0,0.06172839506172839,52.901234567901234,0)" xlink:href="#A"/></g><path fill="#333" d="M115-194c55 1 70 41 70 98S169 2 115 4C84 4 66-9 55-30l1 105H24l-1-265h31l2 30c10-21 28-34 59-34zm-8 174c40 0 45-34 45-75s-6-73-45-74c-42 0-51 32-51 76 0 43 10 73 51 73" id="B"/><g id="c"><use transform="matrix(0.06172839506172839,0,0,0.06172839506172839,0,0)" xlink:href="#s"/><use transform="matrix(0.06172839506172839,0,0,0.06172839506172839,14.814814814814813,0)" xlink:href="#B"/><use transform="matrix(0.06172839506172839,0,0,0.06172839506172839,27.160493827160494,0)" xlink:href="#B"/></g><path fill="#333" d="M84 4C-5 8 30-112 23-190h32v120c0 31 7 50 39 49 72-2 45-101 50-169h31l1 190h-30c-1-10 1-25-2-33-11 22-28 36-60 37" id="C"/><path fill="#333" d="M135-143c-3-34-86-38-87 0 15 53 115 12 119 90S17 21 10-45l28-5c4 36 97 45 98 0-10-56-113-15-118-90-4-57 82-63 122-42 12 7 21 19 24 35" id="D"/><path fill="#333" d="M114-163C36-179 61-72 57 0H25l-1-190h30c1 12-1 29 2 39 6-27 23-49 58-41v29" id="E"/><g id="d"><use transform="matrix(0.06172839506172839,0,0,0.06172839506172839,0,0)" xlink:href="#C"/><use transform="matrix(0.06172839506172839,0,0,0.06172839506172839,12.345679012345679,0)" xlink:href="#D"/><use transform="matrix(0.06172839506172839,0,0,0.06172839506172839,23.45679012345679,0)" xlink:href="#A"/><use transform="matrix(0.06172839506172839,0,0,0.06172839506172839,35.80246913580247,0)" xlink:href="#E"/></g><path fill="#333" d="M177-190C167-65 218 103 67 71c-23-6-38-20-44-43l32-5c15 47 100 32 89-28v-30C133-14 115 1 83 1 29 1 15-40 15-95c0-56 16-97 71-98 29-1 48 16 59 35 1-10 0-23 2-32h30zM94-22c36 0 50-32 50-73 0-42-14-75-50-75-39 0-46 34-46 75s6 73 46 73" id="F"/><path fill="#333" d="M96-169c-40 0-48 33-48 73s9 75 48 75c24 0 41-14 43-38l32 2c-6 37-31 61-74 61-59 0-76-41-82-99-10-93 101-131 147-64 4 7 5 14 7 22l-32 3c-4-21-16-35-41-35" id="G"/><path fill="#333" d="M85-194c31 0 48 13 60 33l-1-100h32l1 261h-30c-2-10 0-23-3-31C134-8 116 4 85 4 32 4 16-35 15-94c0-66 23-100 70-100zm9 24c-40 0-46 34-46 75 0 40 6 74 45 74 42 0 51-32 51-76 0-42-9-74-50-73" id="H"/><g id="e"><use transform="matrix(0.06172839506172839,0,0,0.06172839506172839,0,0)" xlink:href="#F"/><use transform="matrix(0.06172839506172839,0,0,0.06172839506172839,12.345679012345679,0)" xlink:href="#A"/><use transform="matrix(0.06172839506172839,0,0,0.06172839506172839,24.691358024691358,0)" xlink:href="#w"/><use transform="matrix(0.06172839506172839,0,0,0.06172839506172839,37.03703703703704,0)" xlink:href="#G"/><use transform="matrix(0.06172839506172839,0,0,0.06172839506172839,48.14814814814815,0)" xlink:href="#w"/><use transform="matrix(0.06172839506172839,0,0,0.06172839506172839,60.49382716049383,0)" xlink:href="#H"/><use transform="matrix(0.06172839506172839,0,0,0.06172839506172839,72.8395061728395,0)" xlink:href="#A"/></g><path fill="#333" d="M87 75C49 33 22-17 22-94c0-76 28-126 65-167h31c-38 41-64 92-64 168S80 34 118 75H87" id="I"/><path fill="#333" d="M-5 72V49h209v23H-5" id="J"/><path fill="#333" d="M141-36C126-15 110 5 73 4 37 3 15-17 15-53c-1-64 63-63 125-63 3-35-9-54-41-54-24 1-41 7-42 31l-33-3c5-37 33-52 76-52 45 0 72 20 72 64v82c-1 20 7 32 28 27v20c-31 9-61-2-59-35zM48-53c0 20 12 33 32 33 41-3 63-29 60-74-43 2-92-5-92 41" id="K"/><path fill="#333" d="M59-47c-2 24 18 29 38 22v24C64 9 27 4 27-40v-127H5v-23h24l9-43h21v43h35v23H59v120" id="L"/><path fill="#333" d="M117-194c89-4 53 116 60 194h-32v-121c0-31-8-49-39-48C34-167 62-67 57 0H25l-1-190h30c1 10-1 24 2 32 11-22 29-35 61-36" id="M"/><path fill="#333" d="M33 0v-38h34V0H33" id="N"/><path fill="#333" d="M179-190L93 31C79 59 56 82 12 73V49c39 6 53-20 64-50L1-190h34L92-34l54-156h33" id="O"/><path fill="#333" d="M103-251c84 0 111 97 45 133-19 10-37 24-39 52H78c0-63 77-55 77-114 0-30-21-42-52-43-32 0-53 17-56 46l-32-2c7-45 34-72 88-72zM77 0v-35h34V0H77" id="P"/><path fill="#333" d="M33-261c38 41 65 92 65 168S71 34 33 75H2C39 34 66-17 66-93S39-220 2-261h31" id="Q"/><g id="f"><use transform="matrix(0.06172839506172839,0,0,0.06172839506172839,0,0)" xlink:href="#I"/><use transform="matrix(0.06172839506172839,0,0,0.06172839506172839,7.345679012345679,0)" xlink:href="#C"/><use transform="matrix(0.06172839506172839,0,0,0.06172839506172839,19.691358024691358,0)" xlink:href="#D"/><use transform="matrix(0.06172839506172839,0,0,0.06172839506172839,30.80246913580247,0)" xlink:href="#A"/><use transform="matrix(0.06172839506172839,0,0,0.06172839506172839,43.148148148148145,0)" xlink:href="#E"/><use transform="matrix(0.06172839506172839,0,0,0.06172839506172839,50.49382716049382,0)" xlink:href="#J"/><use transform="matrix(0.06172839506172839,0,0,0.06172839506172839,62.8395061728395,0)" xlink:href="#z"/><use transform="matrix(0.06172839506172839,0,0,0.06172839506172839,67.71604938271604,0)" xlink:href="#w"/><use transform="matrix(0.06172839506172839,0,0,0.06172839506172839,80.06172839506172,0)" xlink:href="#G"/><use transform="matrix(0.06172839506172839,0,0,0.06172839506172839,91.17283950617283,0)" xlink:href="#K"/><use transform="matrix(0.06172839506172839,0,0,0.06172839506172839,103.51851851851852,0)" xlink:href="#L"/><use transform="matrix(0.06172839506172839,0,0,0.06172839506172839,109.69135802469135,0)" xlink:href="#y"/><use transform="matrix(0.06172839506172839,0,0,0.06172839506172839,114.5679012345679,0)" xlink:href="#w"/><use transform="matrix(0.06172839506172839,0,0,0.06172839506172839,126.91358024691357,0)" xlink:href="#M"/><use transform="matrix(0.06172839506172839,0,0,0.06172839506172839,139.25925925925927,0)" xlink:href="#N"/><use transform="matrix(0.06172839506172839,0,0,0.06172839506172839,145.4320987654321,0)" xlink:href="#B"/><use transform="matrix(0.06172839506172839,0,0,0.06172839506172839,157.77777777777777,0)" xlink:href="#O"/><use transform="matrix(0.06172839506172839,0,0,0.06172839506172839,168.88888888888889,0)" xlink:href="#P"/><use transform="matrix(0.06172839506172839,0,0,0.06172839506172839,181.23456790123456,0)" xlink:href="#Q"/></g><path fill="#333" d="M212-179c-10-28-35-45-73-45-59 0-87 40-87 99 0 60 29 101 89 101 43 0 62-24 78-52l27 14C228-24 195 4 139 4 59 4 22-46 18-125c-6-104 99-153 187-111 19 9 31 26 39 46" id="R"/><g id="g"><use transform="matrix(0.06172839506172839,0,0,0.06172839506172839,0,0)" xlink:href="#R"/><use transform="matrix(0.06172839506172839,0,0,0.06172839506172839,15.987654320987653,0)" xlink:href="#z"/><use transform="matrix(0.06172839506172839,0,0,0.06172839506172839,20.864197530864196,0)" xlink:href="#w"/><use transform="matrix(0.06172839506172839,0,0,0.06172839506172839,33.20987654320987,0)" xlink:href="#D"/><use transform="matrix(0.06172839506172839,0,0,0.06172839506172839,44.32098765432099,0)" xlink:href="#A"/><use transform="matrix(0.06172839506172839,0,0,0.06172839506172839,56.666666666666664,0)" xlink:href="#D"/><use transform="matrix(0.06172839506172839,0,0,0.06172839506172839,67.77777777777777,0)" xlink:href="#L"/></g><g id="h"><use transform="matrix(0.06172839506172839,0,0,0.06172839506172839,0,0)" xlink:href="#H"/><use transform="matrix(0.06172839506172839,0,0,0.06172839506172839,12.345679012345679,0)" xlink:href="#E"/><use transform="matrix(0.06172839506172839,0,0,0.06172839506172839,19.691358024691358,0)" xlink:href="#w"/><use transform="matrix(0.06172839506172839,0,0,0.06172839506172839,32.03703703703704,0)" xlink:href="#M"/><use transform="matrix(0.06172839506172839,0,0,0.06172839506172839,44.382716049382715,0)" xlink:href="#A"/></g><path fill="#333" d="M118-107v75H92v-75H18v-26h74v-75h26v75h74v26h-74" id="S"/><use transform="matrix(0.06172839506172839,0,0,0.06172839506172839,0,0)" xlink:href="#S" id="i"/><path fill="#333" d="M30 0v-248h187v28H63v79h144v27H63v87h162V0H30" id="T"/><path fill="#333" d="M127-220V0H93v-220H8v-28h204v28h-85" id="U"/><g id="j"><use transform="matrix(0.06172839506172839,0,0,0.06172839506172839,0,0)" xlink:href="#T"/><use transform="matrix(0.06172839506172839,0,0,0.06172839506172839,14.814814814814813,0)" xlink:href="#U"/><use transform="matrix(0.06172839506172839,0,0,0.06172839506172839,26.666666666666664,0)" xlink:href="#s"/></g><path fill="#333" d="M197 0v-115H63V0H30v-248h33v105h134v-105h34V0h-34" id="V"/><path fill="#333" d="M185-189c-5-48-123-54-124 2 14 75 158 14 163 119 3 78-121 87-175 55-17-10-28-26-33-46l33-7c5 56 141 63 141-1 0-78-155-14-162-118-5-82 145-84 179-34 5 7 8 16 11 25" id="W"/><path fill="#333" d="M16-82v-28h88v28H16" id="X"/><path fill="#333" d="M30-248c118-7 216 8 213 122C240-48 200 0 122 0H30v-248zM63-27c89 8 146-16 146-99s-60-101-146-95v194" id="Y"/><path fill="#333" d="M160-131c35 5 61 23 61 61C221 17 115-2 30 0v-248c76 3 177-17 177 60 0 33-19 50-47 57zm-97-11c50-1 110 9 110-42 0-47-63-36-110-37v79zm0 115c55-2 124 14 124-45 0-56-70-42-124-44v89" id="Z"/><g id="k"><use transform="matrix(0.06172839506172839,0,0,0.06172839506172839,0,0)" xlink:href="#V"/><use transform="matrix(0.06172839506172839,0,0,0.06172839506172839,15.987654320987653,0)" xlink:href="#W"/><use transform="matrix(0.06172839506172839,0,0,0.06172839506172839,30.80246913580247,0)" xlink:href="#X"/><use transform="matrix(0.06172839506172839,0,0,0.06172839506172839,38.148148148148145,0)" xlink:href="#Y"/><use transform="matrix(0.06172839506172839,0,0,0.06172839506172839,54.1358024691358,0)" xlink:href="#Z"/></g><path fill="#333" d="M0 4l72-265h28L28 4H0" id="aa"/><g id="l"><use transform="matrix(0.06172839506172839,0,0,0.06172839506172839,0,0)" xlink:href="#V"/><use transform="matrix(0.06172839506172839,0,0,0.06172839506172839,15.987654320987653,0)" xlink:href="#W"/><use transform="matrix(0.06172839506172839,0,0,0.06172839506172839,30.80246913580247,0)" xlink:href="#aa"/><use transform="matrix(0.06172839506172839,0,0,0.06172839506172839,36.97530864197531,0)" xlink:href="#Y"/><use transform="matrix(0.06172839506172839,0,0,0.06172839506172839,52.96296296296296,0)" xlink:href="#E"/><use transform="matrix(0.06172839506172839,0,0,0.06172839506172839,60.30864197530864,0)" xlink:href="#w"/><use transform="matrix(0.06172839506172839,0,0,0.06172839506172839,72.65432098765432,0)" xlink:href="#M"/><use transform="matrix(0.06172839506172839,0,0,0.06172839506172839,85,0)" xlink:href="#A"/></g><path fill="#333" d="M106-169C34-169 62-67 57 0H25v-261h32l-1 103c12-21 28-36 61-36 89 0 53 116 60 194h-32v-121c2-32-8-49-39-48" id="ab"/><g id="m"><use transform="matrix(0.06172839506172839,0,0,0.06172839506172839,0,0)" xlink:href="#I"/><use transform="matrix(0.06172839506172839,0,0,0.06172839506172839,7.345679012345679,0)" xlink:href="#G"/><use transform="matrix(0.06172839506172839,0,0,0.06172839506172839,18.45679012345679,0)" xlink:href="#z"/><use transform="matrix(0.06172839506172839,0,0,0.06172839506172839,23.333333333333336,0)" xlink:href="#w"/><use transform="matrix(0.06172839506172839,0,0,0.06172839506172839,35.67901234567901,0)" xlink:href="#D"/><use transform="matrix(0.06172839506172839,0,0,0.06172839506172839,46.79012345679013,0)" xlink:href="#A"/><use transform="matrix(0.06172839506172839,0,0,0.06172839506172839,59.135802469135804,0)" xlink:href="#D"/><use transform="matrix(0.06172839506172839,0,0,0.06172839506172839,70.24691358024691,0)" xlink:href="#L"/><use transform="matrix(0.06172839506172839,0,0,0.06172839506172839,76.41975308641975,0)" xlink:href="#J"/><use transform="matrix(0.06172839506172839,0,0,0.06172839506172839,88.76543209876543,0)" xlink:href="#D"/><use transform="matrix(0.06172839506172839,0,0,0.06172839506172839,99.87654320987654,0)" xlink:href="#G"/><use transform="matrix(0.06172839506172839,0,0,0.06172839506172839,110.98765432098766,0)" xlink:href="#ab"/><use transform="matrix(0.06172839506172839,0,0,0.06172839506172839,123.33333333333334,0)" xlink:href="#w"/><use transform="matrix(0.06172839506172839,0,0,0.06172839506172839,135.679012345679,0)" xlink:href="#w"/><use transform="matrix(0.06172839506172839,0,0,0.06172839506172839,148.02469135802468,0)" xlink:href="#z"/><use transform="matrix(0.06172839506172839,0,0,0.06172839506172839,152.9012345679012,0)" xlink:href="#N"/><use transform="matrix(0.06172839506172839,0,0,0.06172839506172839,159.07407407407405,0)" xlink:href="#B"/><use transform="matrix(0.06172839506172839,0,0,0.06172839506172839,171.41975308641972,0)" xlink:href="#O"/><use transform="matrix(0.06172839506172839,0,0,0.06172839506172839,182.53086419753083,0)" xlink:href="#Q"/></g><path fill="#333" d="M143 4C61 4 22-44 18-125c-5-107 100-154 193-111 17 8 29 25 37 43l-32 9c-13-25-37-40-76-40-61 0-88 39-88 99 0 61 29 100 91 101 35 0 62-11 79-27v-45h-74v-28h105v86C228-13 192 4 143 4" id="ac"/><g id="n"><use transform="matrix(0.06172839506172839,0,0,0.06172839506172839,0,0)" xlink:href="#ac"/><use transform="matrix(0.06172839506172839,0,0,0.06172839506172839,17.28395061728395,0)" xlink:href="#w"/><use transform="matrix(0.06172839506172839,0,0,0.06172839506172839,29.629629629629626,0)" xlink:href="#w"/><use transform="matrix(0.06172839506172839,0,0,0.06172839506172839,41.9753086419753,0)" xlink:href="#F"/><use transform="matrix(0.06172839506172839,0,0,0.06172839506172839,54.32098765432098,0)" xlink:href="#z"/><use transform="matrix(0.06172839506172839,0,0,0.06172839506172839,59.197530864197525,0)" xlink:href="#A"/></g><g id="o"><use transform="matrix(0.06172839506172839,0,0,0.06172839506172839,0,0)" xlink:href="#s"/><use transform="matrix(0.06172839506172839,0,0,0.06172839506172839,14.814814814814813,0)" xlink:href="#t"/><use transform="matrix(0.06172839506172839,0,0,0.06172839506172839,29.629629629629626,0)" xlink:href="#u"/></g><g id="p"><use transform="matrix(0.06172839506172839,0,0,0.06172839506172839,0,0)" xlink:href="#F"/><use transform="matrix(0.06172839506172839,0,0,0.06172839506172839,12.345679012345679,0)" xlink:href="#A"/><use transform="matrix(0.06172839506172839,0,0,0.06172839506172839,24.691358024691358,0)" xlink:href="#w"/></g><g id="q"><use transform="matrix(0.06172839506172839,0,0,0.06172839506172839,0,0)" xlink:href="#G"/><use transform="matrix(0.06172839506172839,0,0,0.06172839506172839,11.11111111111111,0)" xlink:href="#w"/><use transform="matrix(0.06172839506172839,0,0,0.06172839506172839,23.45679012345679,0)" xlink:href="#H"/><use transform="matrix(0.06172839506172839,0,0,0.06172839506172839,35.80246913580247,0)" xlink:href="#A"/><use transform="matrix(0.06172839506172839,0,0,0.06172839506172839,48.148148148148145,0)" xlink:href="#D"/></g><path fill="#333" d="M210-169c-67 3-38 105-44 169h-31v-121c0-29-5-50-35-48C34-165 62-65 56 0H25l-1-190h30c1 10-1 24 2 32 10-44 99-50 107 0 11-21 27-35 58-36 85-2 47 119 55 194h-31v-121c0-29-5-49-35-48" id="ad"/><g id="r"><use transform="matrix(0.06172839506172839,0,0,0.06172839506172839,0,0)" xlink:href="#I"/><use transform="matrix(0.06172839506172839,0,0,0.06172839506172839,7.345679012345679,0)" xlink:href="#A"/><use transform="matrix(0.06172839506172839,0,0,0.06172839506172839,19.691358024691358,0)" xlink:href="#D"/><use transform="matrix(0.06172839506172839,0,0,0.06172839506172839,30.80246913580247,0)" xlink:href="#L"/><use transform="matrix(0.06172839506172839,0,0,0.06172839506172839,36.97530864197531,0)" xlink:href="#y"/><use transform="matrix(0.06172839506172839,0,0,0.06172839506172839,41.851851851851855,0)" xlink:href="#ad"/><use transform="matrix(0.06172839506172839,0,0,0.06172839506172839,60.308641975308646,0)" xlink:href="#K"/><use transform="matrix(0.06172839506172839,0,0,0.06172839506172839,72.65432098765433,0)" xlink:href="#L"/><use transform="matrix(0.06172839506172839,0,0,0.06172839506172839,78.82716049382717,0)" xlink:href="#A"/><use transform="matrix(0.06172839506172839,0,0,0.06172839506172839,91.17283950617285,0)" xlink:href="#J"/><use transform="matrix(0.06172839506172839,0,0,0.06172839506172839,103.51851851851853,0)" xlink:href="#L"/><use transform="matrix(0.06172839506172839,0,0,0.06172839506172839,109.69135802469137,0)" xlink:href="#y"/><use transform="matrix(0.06172839506172839,0,0,0.06172839506172839,114.56790123456791,0)" xlink:href="#ad"/><use transform="matrix(0.06172839506172839,0,0,0.06172839506172839,133.0246913580247,0)" xlink:href="#A"/><use transform="matrix(0.06172839506172839,0,0,0.06172839506172839,145.37037037037038,0)" xlink:href="#N"/><use transform="matrix(0.06172839506172839,0,0,0.06172839506172839,151.54320987654322,0)" xlink:href="#B"/><use transform="matrix(0.06172839506172839,0,0,0.06172839506172839,163.88888888888889,0)" xlink:href="#O"/><use transform="matrix(0.06172839506172839,0,0,0.06172839506172839,175,0)" xlink:href="#Q"/></g></defs></g></svg>